<svg width="13" height="21" viewBox="0 0 13 21" fill="none" xmlns="http://www.w3.org/2000/svg">
<path d="M12.2212 10.8916C12.2212 11.2847 12.0752 11.6216 11.7607 11.9136L3.02344 20.4712C2.77637 20.7183 2.46191 20.853 2.09131 20.853C1.3501 20.853 0.754883 20.269 0.754883 19.5166C0.754883 19.146 0.912109 18.8203 1.15918 18.562L9.03174 10.8916L1.15918 3.22119C0.912109 2.96289 0.754883 2.62598 0.754883 2.2666C0.754883 1.51416 1.3501 0.930176 2.09131 0.930176C2.46191 0.930176 2.77637 1.06494 3.02344 1.31201L11.7607 9.8584C12.0752 10.1616 12.2212 10.4985 12.2212 10.8916Z" fill="white" fill-opacity="0.5"/>
</svg>
