<svg width="33" height="33" viewBox="0 0 33 33" fill="none" xmlns="http://www.w3.org/2000/svg">
<path d="M14.0745 32.9727C6.38137 31.8809 -0.0777289 25.3007 0.000706941 16.3786C0.0818789 7.12803 7.6482 -0.100841 16.6273 0.00106422C25.6939 0.102059 32.9292 7.33093 32.9994 16.4314C33.0341 20.847 31.562 24.7439 28.5131 27.9866C26.1007 30.5552 23.1812 32.2439 19.7036 33V21.1363H22.9304C23.1758 19.5659 23.4156 18.0373 23.6601 16.4696H18.756C18.756 15.5415 18.756 14.6499 18.756 13.7509C18.7479 13.4296 18.7675 13.1081 18.8144 12.7901C19.0141 11.6983 19.7173 11.0186 20.8209 10.9394C21.8159 10.8676 22.8173 10.8894 23.816 10.8721C23.9811 10.8721 24.1453 10.8721 24.3304 10.8721V6.78228C23.7239 6.7104 23.1128 6.62032 22.4981 6.56846C21.1574 6.45291 19.8167 6.37011 18.4915 6.71131C16.1202 7.32274 14.5405 9.01963 14.2332 11.4426C14.0918 12.5599 14.1237 13.7 14.09 14.83C14.0736 15.3605 14.09 15.8918 14.09 16.4514H10.3871V21.1245H14.0726L14.0745 32.9727Z" fill="black"/>
</svg>
