<svg width="22" height="26" viewBox="0 0 22 26" fill="none" xmlns="http://www.w3.org/2000/svg">
<g clip-path="url(#clip0_0_154)">
<path d="M4.06843 26.0007C3.7689 25.9371 3.46419 25.8945 3.17046 25.8131C1.2893 25.2909 0.100184 23.8624 0.0175528 21.9174C-0.0683065 19.9076 0.155702 17.927 0.931018 16.0456C1.43133 14.8308 2.15758 13.7801 3.37575 13.1384C4.11225 12.7472 4.93945 12.5516 5.77594 12.571C6.04191 12.5761 6.32208 12.7084 6.56481 12.8388C6.95537 13.0481 7.31818 13.3088 7.69777 13.5384C9.90515 14.8809 12.1121 14.8792 14.3186 13.5333C14.6253 13.3464 14.9377 13.1657 15.2224 12.9533C15.7498 12.564 16.3308 12.5151 16.9577 12.606C18.6697 12.8534 19.8788 13.7776 20.6935 15.2512C21.4217 16.5665 21.749 17.995 21.8949 19.4674C21.9724 20.2252 22.0079 20.9866 22.0014 21.7482C21.9737 24.0163 20.3933 25.7043 18.1035 25.953C18.0465 25.964 17.9905 25.9799 17.9363 26.0007H4.06843Z" fill="white"/>
<path d="M17.1985 6.25845C17.2101 9.70887 14.3858 12.4978 10.8507 12.5271C7.36467 12.5563 4.50033 9.74894 4.48225 6.28198C4.47908 4.62044 5.14598 3.02572 6.33624 1.84863C7.5265 0.671539 9.14261 0.00850281 10.8291 0.00538216C12.5155 0.00226151 14.1341 0.659312 15.3289 1.83199C16.5236 3.00467 17.1966 4.59691 17.1998 6.25845H17.1985Z" fill="white"/>
</g>
<defs>
<clipPath id="clip0_0_154">
<rect width="22" height="26" fill="white"/>
</clipPath>
</defs>
</svg>
