<svg width="22" height="22" viewBox="0 0 22 22" fill="none" xmlns="http://www.w3.org/2000/svg">
<g clip-path="url(#clip0_3_541)">
<path d="M21.7314 20.4353L16.2598 14.9637C17.7509 13.1401 18.484 10.8131 18.3075 8.46414C18.131 6.11516 17.0585 3.92386 15.3116 2.34352C13.5648 0.763179 11.2774 -0.0853045 8.92252 -0.0264253C6.56765 0.0324538 4.32549 0.994191 2.65983 2.65986C0.99416 4.32552 0.0324233 6.56768 -0.0264558 8.92255C-0.085335 11.2774 0.763148 13.5648 2.34349 15.3117C3.92383 17.0585 6.11512 18.1311 8.46411 18.3076C10.8131 18.4841 13.1401 17.7509 14.9637 16.2599L20.4353 21.7315C20.6081 21.8984 20.8397 21.9908 21.08 21.9887C21.3204 21.9867 21.5503 21.8902 21.7203 21.7203C21.8902 21.5503 21.9866 21.3204 21.9887 21.0801C21.9908 20.8397 21.8984 20.6082 21.7314 20.4353ZM9.16668 16.5C7.71628 16.5 6.29846 16.07 5.0925 15.2642C3.88654 14.4584 2.94661 13.313 2.39156 11.9731C1.83652 10.6331 1.6913 9.15858 1.97425 7.73605C2.25721 6.31352 2.95565 5.00685 3.98123 3.98126C5.00681 2.95568 6.31349 2.25724 7.73602 1.97429C9.15854 1.69133 10.633 1.83655 11.973 2.39159C13.313 2.94664 14.4583 3.88657 15.2641 5.09253C16.0699 6.29849 16.5 7.71631 16.5 9.16671C16.4978 11.111 15.7245 12.975 14.3497 14.3497C12.9749 15.7245 11.1109 16.4979 9.16668 16.5Z" fill="white"/>
</g>
<defs>
<clipPath id="clip0_3_541">
<rect width="22" height="22" fill="white"/>
</clipPath>
</defs>
</svg>
