<svg width="18" height="18" viewBox="0 0 18 18" fill="none" xmlns="http://www.w3.org/2000/svg">
<path d="M9 18C13.9706 18 18 13.9706 18 9C18 4.02944 13.9706 0 9 0C4.02944 0 0 4.02944 0 9C0 13.9706 4.02944 18 9 18Z" fill="#F0F0F0"/>
<path d="M17.4402 12.1305C17.802 11.1555 18 10.1009 18 9C18 7.89912 17.802 6.84462 17.4402 5.86963H0.559793C0.198035 6.84462 0 7.89912 0 9C0 10.1009 0.198035 11.1555 0.559793 12.1305L9 12.9131L17.4402 12.1305Z" fill="#0052B4"/>
<path d="M9 18C12.8697 18 16.1686 15.5577 17.4402 12.1305H0.559793C1.83143 15.5577 5.13032 18 9 18Z" fill="#D80027"/>
</svg>
