<svg width="31" height="31" viewBox="0 0 31 31" fill="none" xmlns="http://www.w3.org/2000/svg">
<path d="M0 23.4919V7.50728C0.0195879 7.41104 0.0476917 7.31566 0.0579115 7.21772C0.381538 4.08621 2.73379 1.25107 5.76907 0.369615C6.33626 0.204395 6.92731 0.120934 7.50813 0H23.4919C23.5702 0.0178846 23.6469 0.0417304 23.7252 0.0528018C27.1003 0.534835 29.3819 2.38547 30.5597 5.57149C30.7879 6.18723 30.8578 6.86088 31 7.50728V23.4919C30.9821 23.5694 30.9574 23.646 30.9463 23.7252C30.4507 27.1318 28.5805 29.4313 25.3425 30.587C24.7523 30.7982 24.1102 30.8663 23.4919 31H7.50813C7.44 30.983 7.37357 30.9591 7.30544 30.9489C3.88096 30.4635 1.57555 28.5907 0.411348 25.3408C0.200139 24.7515 0.133709 24.1093 0 23.4919ZM25.5495 15.5213C25.5495 13.9977 25.5495 12.4741 25.5495 10.9505C25.5401 7.86497 23.141 5.45736 20.0606 5.45055C17.0236 5.44374 13.9861 5.44374 10.9479 5.45055C7.8539 5.45651 5.45055 7.86242 5.45055 10.9675C5.44658 13.9949 5.44658 17.0219 5.45055 20.0487C5.44694 20.3912 5.47546 20.7334 5.53571 21.0706C6.0467 23.7286 8.25247 25.5443 10.9633 25.5486C13.9798 25.5531 16.9966 25.5531 20.0137 25.5486C23.1504 25.5486 25.5409 23.1435 25.5495 20.0001C25.5529 18.5069 25.5529 17.0139 25.5495 15.5213Z" fill="black"/>
<path d="M7.26585 15.4697C7.26585 13.977 7.26585 12.4841 7.26585 10.9909C7.26585 8.85493 8.85758 7.26745 10.9978 7.2666C14.0069 7.2666 17.013 7.2666 20.0159 7.2666C22.1373 7.2666 23.7308 8.85748 23.7333 10.9755C23.7333 13.9909 23.7333 17.0069 23.7333 20.0234C23.7333 22.1406 22.1373 23.7315 20.0159 23.7341C16.9999 23.7341 13.9839 23.7341 10.968 23.7341C8.8678 23.7341 7.2701 22.1347 7.26585 20.0396C7.26329 18.516 7.26585 16.9924 7.26585 15.4697ZM10.9594 15.491C10.9576 16.3891 11.2221 17.2677 11.7196 18.0155C12.2171 18.7633 12.9251 19.3468 13.7542 19.6921C14.5833 20.0375 15.4962 20.1293 16.3775 19.9558C17.2587 19.7823 18.0687 19.3514 18.7051 18.7176C19.3414 18.0838 19.7755 17.2755 19.9524 16.3949C20.1294 15.5143 20.0412 14.6011 19.6991 13.7706C19.357 12.9402 18.7763 12.2298 18.0304 11.7294C17.2846 11.229 16.4071 10.961 15.5089 10.9593C14.3055 10.9596 13.1512 11.4365 12.2985 12.2858C11.4459 13.1351 10.9644 14.2875 10.9594 15.491ZM20.7219 11.2004C20.9018 11.1976 21.0768 11.1415 21.2247 11.0391C21.3726 10.9367 21.4868 10.7927 21.5527 10.6253C21.6186 10.4579 21.6333 10.2747 21.5949 10.0989C21.5566 9.92315 21.4668 9.76275 21.3371 9.63808C21.2074 9.51341 21.0436 9.43009 20.8665 9.39869C20.6893 9.36729 20.5068 9.38923 20.3422 9.46172C20.1775 9.53421 20.0381 9.65399 19.9417 9.80585C19.8452 9.95771 19.796 10.1348 19.8004 10.3147C19.8088 10.5531 19.9097 10.7789 20.0817 10.9442C20.2537 11.1095 20.4833 11.2014 20.7219 11.2004Z" fill="black"/>
<path d="M15.5183 12.7764C16.058 12.7797 16.5846 12.9431 17.0313 13.246C17.478 13.5489 17.8247 13.9776 18.0275 14.4778C18.2303 14.978 18.28 15.5271 18.1703 16.0555C18.0606 16.584 17.7964 17.068 17.4113 17.4461C17.0263 17.8243 16.5375 18.0796 16.0072 18.1797C15.4768 18.2797 14.9287 18.2201 14.4323 18.0082C13.9358 17.7964 13.5135 17.442 13.2188 16.9898C12.9241 16.5376 12.7702 16.0082 12.7768 15.4685C12.7856 14.7487 13.0788 14.0615 13.5924 13.5571C14.1061 13.0528 14.7984 12.7721 15.5183 12.7764Z" fill="black"/>
</svg>
