<svg width="137" height="30" viewBox="0 0 137 30" fill="none" xmlns="http://www.w3.org/2000/svg">
<g clip-path="url(#clip0_3_207)">
<path d="M23.3392 12.5527C23.7219 14.5484 23.2901 16.6128 22.1386 18.2937C20.9871 19.9747 19.2097 21.135 17.196 21.5204C16.197 21.7058 15.1709 21.6939 14.1766 21.4853C13.1823 21.2768 12.2394 20.8758 11.402 20.3053C10.5647 19.7348 9.8494 19.0061 9.29726 18.161C8.74512 17.3159 8.36702 16.3711 8.18465 15.3809C7.79929 13.3859 8.22913 11.321 9.37978 9.63961C10.5304 7.95822 12.3078 6.79783 14.3217 6.41326C15.321 6.22783 16.3475 6.23968 17.3422 6.44813C18.3369 6.65658 19.2803 7.05753 20.1181 7.62797C20.9559 8.19841 21.6718 8.9271 22.2245 9.77222C22.7773 10.6173 23.1561 11.5623 23.3392 12.5527Z" fill="white" stroke="#00365F" stroke-width="0.329815" stroke-miterlimit="10"/>
<path fill-rule="evenodd" clip-rule="evenodd" d="M9.56438 9.46929C10.3381 9.27849 11.1367 7.80132 11.8327 7.68438H11.985C12.2149 7.68438 12.3579 7.93057 12.737 7.95212L12.883 8.11214C13.0415 8.04444 13.1938 8.05059 13.2777 7.90288L13.8991 7.93365C14.4678 7.35202 15.7635 7.56744 16.0308 6.74268L16.413 6.76423C16.4938 6.69037 16.8169 6.32415 16.9692 6.33339C15.4166 6.08882 13.8257 6.32865 12.4169 7.01965C11.7955 7.3674 10.4407 8.21678 9.77879 9.1L9.65449 9.30619L9.56438 9.46929ZM15.8039 10.9403L15.7791 11.4727C15.8506 11.4727 16.0712 11.6389 16.152 11.645C16.2981 11.5885 16.4566 11.5705 16.6119 11.5927L16.7579 11.7497C16.674 11.8235 16.5217 11.8912 16.4472 11.962C16.3726 11.8851 16.3726 11.8851 16.2172 11.962H16.065C15.8381 11.8758 15.6082 11.8635 15.3876 11.7774H15.3068C15.0265 11.8029 14.7439 11.7884 14.4678 11.7343L14.387 11.8081C14.2378 11.8081 13.9457 11.4789 13.7997 11.3958C13.7997 11.3188 13.8805 11.248 13.8836 11.1711C13.809 11.1711 13.663 11.008 13.5729 11.0049C13.5382 10.9545 13.4919 10.9129 13.4379 10.8835C13.384 10.8541 13.3237 10.8377 13.2621 10.8357V10.6849C13.0196 10.8173 12.7557 10.9069 12.4822 10.9495C12.013 11.0788 11.2952 11.6543 10.8384 11.6266C10.3505 12.2144 10.3257 12.6729 10.2822 13.513C10.5681 13.907 10.6861 14.5224 10.9751 14.9194C11.4342 14.8808 11.8957 14.8808 12.3548 14.9194L12.333 15.301C12.5069 15.3493 12.6895 15.3587 12.8675 15.3287C12.9359 15.4857 12.8489 15.7103 12.8333 16.0119C13.1192 16.4089 13.5014 16.5043 13.4548 17.2675L13.287 17.4891C13.2435 18.4123 14.1229 19.1355 14.5548 19.7664C14.937 19.7879 15.3254 19.5787 15.7977 19.6002C15.9033 19.3212 16.1061 19.0887 16.3695 18.9447L16.3912 18.4862C16.8511 18.5077 17.1867 17.9138 17.3638 17.4645C17.2892 17.3845 17.1432 17.3014 17.0686 17.2213C17.0686 16.9936 17.1712 16.7659 17.1805 16.6059C17.2737 16.2304 18.7031 15.3103 18.6254 15.2272C18.6472 14.8456 18.6441 14.9194 18.8833 14.7102L18.4234 14.6855C18.265 14.8302 17.9636 14.7379 17.802 14.7286C17.7209 14.5483 17.6141 14.3804 17.485 14.2301C17.4167 14.0762 17.4198 13.9993 17.3514 13.8423C17.283 13.7623 17.0407 13.6761 16.9816 13.5961C16.9133 13.4361 16.9816 13.2884 16.9288 13.1345C16.9288 12.9806 16.789 12.8976 16.7175 12.7406C16.6554 12.5098 16.3633 12.1897 16.3757 11.9589C16.6056 11.9589 16.7299 12.5129 16.8915 12.3682L17.1743 12.9345L17.2209 13.47L17.7336 13.9531L17.9356 14.4978C18.6223 14.5317 19.1319 13.5746 19.7441 13.5992L19.8373 13.2915C19.8373 13.2176 19.772 13.0607 19.7751 12.9837H19.5452L19.3991 12.8206C19.0169 12.8022 18.4669 12.8514 18.1997 12.3805C18.0443 12.3805 17.9822 12.0728 17.9138 11.9066C18.1531 11.7681 18.5135 12.2421 18.6472 12.556C18.9579 12.556 19.3246 12.8175 19.6384 12.6821L19.7814 12.8422C19.8885 12.7766 19.9922 12.7057 20.0921 12.6298H20.3189C20.3935 12.7098 20.611 12.9376 20.7602 12.956C20.7602 13.1068 20.8938 13.3438 20.8907 13.4238C20.9212 13.0916 20.9129 12.757 20.8658 12.4267C21.0119 12.6637 21.2107 13.1345 21.1237 13.3499C21.1237 13.3499 21.2698 13.513 21.3506 13.513C21.3319 13.7438 21.3847 14.2824 21.6116 14.2947C21.6155 14.372 21.647 14.4453 21.7005 14.5017C21.754 14.5581 21.826 14.5938 21.9037 14.6025C21.9037 14.4517 21.9907 14.3778 21.9969 14.2947C21.9099 14.4424 22.0839 14.067 22.0839 14.067L22.0186 13.8362L21.9782 13.1468C22.0559 13.073 22.289 12.9314 22.376 12.8606C22.3076 12.7037 22.3076 12.7037 22.3946 12.4821C22.4723 12.4821 22.5438 12.5621 22.7054 12.5713C22.6926 12.7011 22.7301 12.8309 22.8103 12.9343C22.8905 13.0377 23.0074 13.1071 23.1373 13.1284C23.1373 12.9745 23.0658 12.9745 23.159 12.7468H23.3859C23.2516 11.9137 22.983 11.1073 22.5904 10.3587C22.0555 9.33776 21.2873 8.45468 20.3469 7.77978C19.8163 7.34284 19.2112 7.00311 18.5602 6.77654C18.5602 6.77654 18.4359 6.68114 18.4017 6.69652C18.3675 6.71191 18.4017 6.69652 18.2929 6.8227C18.2693 6.85242 18.2382 6.87546 18.2028 6.88951C18.1673 6.90355 18.1287 6.90811 18.091 6.90271C18.1593 7.05966 18.0909 6.97657 18.1593 7.13352H17.9294C17.9294 7.36125 18.0599 7.52128 18.0568 7.59821C17.9791 7.66899 17.746 7.59821 17.5254 7.57051C17.5254 7.41972 17.4695 7.1089 17.2395 7.09967C17.2395 7.17353 17.1525 7.32432 17.1463 7.40741C17.2209 7.48742 17.3638 7.71515 17.4353 7.8044C17.1246 7.8044 16.8791 8.1583 16.5031 7.98597C16.674 7.6136 15.8381 7.49358 15.6859 7.48742L15.5243 7.63206C15.3751 7.54589 14.735 8.12445 14.5734 8.27217L14.7133 8.57991C15.3347 8.23216 15.3347 8.38604 15.5802 8.0906C15.7294 8.0906 15.7635 8.05675 15.8909 8.16446C16.0183 8.27217 15.6206 8.56145 15.6206 8.62607C15.6206 8.6907 15.6921 8.78302 15.6859 8.85996C15.5274 8.92766 15.2974 8.98921 15.2912 9.06923C15.2135 9.06923 15.1452 8.98306 15.0675 8.97998C15.0675 8.90304 15.2322 8.7584 15.2353 8.67224C15.1638 8.58915 15.1638 8.58915 15.17 8.51529C15.0924 8.51529 15.083 8.58607 15.0085 8.58299H14.8562C14.8562 8.73686 14.8562 8.73686 14.8562 8.8138C14.7785 8.88458 14.6169 9.02922 14.5455 9.02614C14.7039 8.8815 14.1601 9.08154 14.0825 9.07846L13.8401 9.29696C13.589 9.24391 13.331 9.23041 13.0757 9.25695C13.0768 9.29647 13.0922 9.33429 13.1189 9.36362C13.1457 9.39295 13.1822 9.41187 13.2217 9.41698C13.2122 9.55813 13.1502 9.69078 13.0477 9.78934C12.9731 9.78934 12.9762 9.70933 12.8178 9.78934L12.5319 9.39543C12.4889 9.4336 12.4342 9.45635 12.3765 9.46006C12.3765 9.69394 12.2771 9.91552 12.2678 10.0755L12.0254 10.3833L12.0068 10.691C12.0844 10.691 12.159 10.771 12.2336 10.7803C12.4666 10.7126 12.6624 10.8511 12.8955 10.8634C12.8955 10.7864 13.085 10.5926 13.0881 10.5187C13.2435 10.5187 13.315 10.6049 13.4672 10.611C13.6288 10.4695 13.7966 10.1709 14.0265 10.1802L14.3093 10.6541C14.2781 10.6822 14.254 10.7172 14.2389 10.7562C14.2238 10.7952 14.2181 10.8372 14.2223 10.8788C14.2223 10.8788 14.0669 10.8788 14.1353 11.0265C14.1353 11.1803 14.4274 11.3342 14.4957 11.4265C14.5796 11.3558 14.7443 11.0572 14.9028 10.9895L14.9215 10.6818L15.0613 10.8418V11.1496C15.2167 11.1496 15.3565 11.3927 15.3472 11.5466C15.4183 11.2561 15.5358 10.9787 15.6952 10.7249C15.7729 10.7249 15.8412 10.8849 15.9158 10.888L15.9997 10.8172C16.0743 10.8172 16.0681 10.8941 16.1489 10.9003C16.1715 10.7719 16.2037 10.6454 16.2452 10.5218C16.472 10.5218 16.615 10.6941 16.8449 10.7064C16.8864 10.5828 16.9186 10.4562 16.9412 10.3279L17.1028 10.1833C16.935 10.491 17.5285 10.8941 17.6714 11.0542C17.5102 11.1012 17.3405 11.1128 17.1743 11.088L17.0313 10.928C16.8492 10.9291 16.6686 10.8946 16.5 10.8264L16.2545 11.0419C16.1053 11.0419 16.0339 10.9526 15.9438 10.9495L15.8039 10.9403ZM18.8398 11.2573L18.4607 11.2419C18.4497 11.1317 18.482 11.0214 18.5508 10.9342L18.3333 10.691H18.1034C18.0311 10.6294 17.981 10.5463 17.9604 10.4541L18.0412 10.3802C18.122 10.3802 18.2681 10.4695 18.352 10.4756C18.3761 10.3223 18.4083 10.1702 18.4483 10.0202C18.4562 10.1003 18.4783 10.1784 18.5135 10.251C18.6658 10.251 18.6658 10.251 18.7404 10.3402C18.7096 10.3686 18.6857 10.4036 18.6706 10.4426C18.6556 10.4815 18.6497 10.5233 18.6534 10.5649C18.728 10.5649 18.7217 10.6449 18.7994 10.7249C18.7062 10.9495 18.9361 10.9588 19.0076 11.1157L18.8398 11.2573ZM8.4737 16.3689C8.72192 16.1569 8.98806 15.9665 9.26918 15.7996C9.08873 15.5758 8.92664 15.3381 8.78443 15.0887V14.7809C8.7059 14.762 8.63056 14.732 8.56071 14.6917L8.41466 14.6086C8.34418 14.3806 8.22435 14.1706 8.06352 13.9931C8.05383 14.8031 8.19281 15.6081 8.4737 16.3689ZM17.9263 18.7601C17.8517 18.7601 17.6155 18.6677 17.5472 18.6647C17.5472 18.5908 17.6342 18.5169 17.715 18.4431L17.5658 18.2861V18.1292L17.7305 17.9846L18.0412 18.003C18.2028 17.8584 18.6099 17.4214 18.8367 17.4337C18.7559 17.5045 18.6005 17.5722 18.526 17.646L18.6689 17.803C18.6008 17.9453 18.5657 18.1009 18.5664 18.2584C18.2556 18.4708 18.0816 18.7693 17.9294 18.7601H17.9263ZM23.2864 15.5195L23.246 15.1348L22.811 14.6548L22.8328 14.1962C22.7436 14.0867 22.6972 13.9491 22.7023 13.8085C22.8592 13.9625 23.0321 14.0996 23.2181 14.2178L23.1994 14.5255L23.4232 14.6917C23.4114 14.9731 23.3655 15.2521 23.2864 15.5226V15.5195Z" fill="#00365F"/>
<path d="M8.72538 17.0522C12.4542 20.6651 19.3308 21.0251 22.4164 17.8338L8.72538 17.0522ZM8.24375 12.3375C7.62228 17.0245 24.0664 17.5076 23.4418 13.1346L8.24375 12.3375ZM9.34374 9.74941C9.05787 12.3221 22.9571 13.51 22.5749 10.4449L9.34374 9.74941ZM11.7861 7.41672C9.94035 8.92466 22.1709 9.65093 20.4183 7.88756L11.7861 7.41672ZM15.4683 21.656L16.1737 6.39193L15.4683 21.656ZM16.1737 6.31807C18.9268 6.45656 21.0554 9.98945 20.8347 14.2394C20.698 18.4185 18.2152 21.7945 15.459 21.656C12.7028 21.5175 10.6488 17.9846 10.798 13.8055C11.0155 9.55553 13.4144 6.25345 16.183 6.31807H16.1737Z" stroke="#00365F" stroke-width="0.329815" stroke-linecap="round" stroke-linejoin="round"/>
<path d="M11.4941 21.5016C10.1443 20.7458 9.02174 19.6481 8.24146 18.321C7.46118 16.9939 7.05125 15.4852 7.05369 13.9496C7.05083 12.8136 7.27409 11.6882 7.71068 10.6377C8.14728 9.5872 8.78865 8.63224 9.59814 7.8274C10.4076 7.02256 11.3693 6.38363 12.4283 5.94713C13.4873 5.51063 14.6228 5.28513 15.7698 5.28352C17.0104 5.28273 18.2366 5.54581 19.3656 6.05498C20.4946 6.56414 21.5001 7.3075 22.3139 8.23478L26.3006 4.74497C24.989 3.25602 23.3704 2.06283 21.5538 1.24583C19.7372 0.428835 17.7649 0.00701186 15.7698 0.00879469C12.0431 0.0161339 8.47185 1.48872 5.84104 4.10286C3.21023 6.717 1.73518 10.2587 1.74013 13.9496C1.73754 16.628 2.51545 19.2502 3.98052 21.5016H11.4941ZM29.7902 13.9496C29.7916 12.4979 29.5651 11.0548 29.119 9.67194C28.9947 9.29034 28.8549 8.92104 28.7026 8.55483C28.5503 8.18861 28.1526 7.42233 28.1526 7.42233H25.213L23.8147 10.6167C23.9049 10.8352 23.9888 11.0599 24.0633 11.2876C24.3429 12.1467 24.4845 13.0439 24.4828 13.9465C24.4896 16.2208 23.5882 18.4056 21.9752 20.0244C20.3774 21.6438 18.1986 22.5728 15.9128 22.6095H0V27.8996H15.9128C19.6094 27.863 23.1409 26.3781 25.7351 23.7697C28.3414 21.1539 29.7988 17.6244 29.7902 13.9496ZM28.1433 22.6218C26.4691 24.983 24.1462 26.819 21.4501 27.9119H31.5334V22.6126L28.1433 22.6218Z" fill="url(#paint0_linear_3_207)"/>
<path d="M38.5343 24.9702V28.1492H38.0402V25.4318H36.7724V28.1492H36.2814V24.9702H38.5343Z" fill="white"/>
<path d="M39.2024 26.0104C39.2024 25.6011 39.2023 25.2749 39.1775 24.9702H39.6218L39.6467 25.5149C39.7297 25.3302 39.8654 25.1736 40.037 25.0642C40.2087 24.9549 40.409 24.8976 40.6131 24.8995C41.2749 24.8995 41.769 25.5488 41.769 26.5151C41.769 27.6568 41.1724 28.22 40.5261 28.22C40.3533 28.2221 40.1834 28.1765 40.0352 28.0885C39.8871 28.0005 39.7666 27.8734 39.6871 27.7215V29.4479H39.1992L39.2024 26.0104ZM39.6902 26.8567C39.6924 26.9361 39.6997 27.0152 39.712 27.0937C39.7394 27.2736 39.8285 27.4388 39.9643 27.5615C40.1 27.6842 40.2742 27.757 40.4577 27.7676C40.9829 27.7676 41.2874 27.2691 41.2874 26.5367C41.2874 25.8996 40.9984 25.3549 40.4733 25.3549C40.2849 25.3729 40.1083 25.4535 39.9723 25.5838C39.8362 25.714 39.7488 25.8861 39.7244 26.072C39.7048 26.1496 39.6933 26.229 39.6902 26.3089V26.8567Z" fill="white"/>
<path d="M44.7334 26.5335C44.7334 27.7091 44.0343 28.22 43.3755 28.22C42.636 28.22 42.0704 27.6045 42.0704 26.5858C42.0704 25.5211 42.667 24.8994 43.4221 24.8994C44.1772 24.8994 44.7334 25.5518 44.7334 26.5335ZM42.5583 26.5674C42.5583 27.2629 42.9001 27.7984 43.3848 27.7984C43.8696 27.7984 44.2145 27.2783 44.2145 26.5674C44.2145 26.0288 43.9815 25.3364 43.3973 25.3364C42.8131 25.3364 42.5707 25.9642 42.5707 26.5674H42.5583Z" fill="white"/>
<path d="M47.2908 24.9704V27.7063H47.5735L47.5455 29.1434H47.1571L47.1323 28.134H45.2461L45.2244 29.1434H44.8297L44.8049 27.7063H45.0379C45.1565 27.5025 45.2474 27.2842 45.3083 27.0569C45.4161 26.6428 45.4694 26.2166 45.4667 25.789V24.9612L47.2908 24.9704ZM45.9111 25.9367C45.9131 26.3348 45.8661 26.7316 45.7713 27.1185C45.7148 27.3213 45.641 27.519 45.5506 27.7093H46.7936V25.4105H45.8987L45.9111 25.9367Z" fill="white"/>
<path d="M48.1888 24.9702L48.7854 26.8505C48.8476 27.0598 48.916 27.3091 48.9595 27.4999C49.0123 27.3091 49.0682 27.0659 49.1366 26.8351L49.6773 24.9702H50.2024L49.4566 27.2352C49.1024 28.3246 48.86 28.8847 48.5244 29.2263C48.3586 29.4081 48.1425 29.5376 47.903 29.5987L47.7787 29.1155C47.9419 29.052 48.09 28.9556 48.2137 28.8324C48.3992 28.6514 48.5414 28.4317 48.6301 28.1892C48.6504 28.1453 48.664 28.0986 48.6705 28.0507C48.6658 27.9992 48.6543 27.9485 48.6363 27.8999L47.6295 24.9702H48.1888Z" fill="white"/>
<path d="M51.0102 24.9702V26.352H51.1283L52.1537 24.9702H52.7565L51.5695 26.4105C52.0076 26.4628 52.2718 26.8044 52.4862 27.3737C52.5687 27.6374 52.6662 27.8964 52.7783 28.1492H52.2593C52.1599 27.939 52.0758 27.722 52.0076 27.4999C51.8212 26.9859 51.5695 26.7521 51.1065 26.7521H51.0102V28.1492H50.5192V24.9702H51.0102Z" fill="white"/>
<path d="M55.0157 24.9702V25.4318H54.1519V28.1492H53.664V25.4318H52.8126V24.9702H55.0157Z" fill="white"/>
<path d="M55.7894 24.9702V26.0535C55.9357 26.0244 56.0846 26.011 56.2338 26.0135C56.818 26.0135 57.4115 26.2966 57.4115 27.0783C57.4187 27.2136 57.3973 27.3489 57.3486 27.4756C57.2999 27.6023 57.225 27.7174 57.1287 27.8138C56.8258 28.074 56.4321 28.2066 56.0318 28.1831C55.7866 28.1825 55.5417 28.167 55.2985 28.1369V24.9702H55.7894ZM55.7894 27.7399C55.9026 27.7559 56.0169 27.7641 56.1312 27.7645C56.5103 27.7645 56.9205 27.583 56.9205 27.0906C56.9205 26.5982 56.5259 26.4197 56.153 26.4197C56.0309 26.4183 55.9091 26.4297 55.7894 26.4535V27.7399ZM58.2442 24.9702V28.1492H57.7533V24.9702H58.2442Z" fill="white"/>
<path d="M62.2122 24.9702V28.1492H61.7151V25.4318H60.4473V28.1492H59.9563V24.9702H62.2122Z" fill="white"/>
<path d="M63.3309 24.9702V26.312C63.3309 26.8167 63.3309 27.1306 63.3029 27.586H63.3216C63.4863 27.2044 63.5795 26.9705 63.7597 26.6136L64.6111 24.9702H65.1922V28.1492H64.7168V26.8044C64.7168 26.2843 64.7168 26.0135 64.7509 25.5026H64.7354C64.5614 25.9088 64.4433 26.1673 64.2848 26.4874C64.0238 26.9798 63.7255 27.5922 63.4334 28.1492H62.8524V24.9702H63.3309Z" fill="white"/>
<path d="M67.6813 24.9702V25.4318H66.8299V28.1492H66.342V25.4318H65.4906V24.9702H67.6813Z" fill="white"/>
<path d="M69.8501 27.3984C69.8467 27.6535 69.8623 27.9086 69.8967 28.1616H69.4462L69.4058 27.7615C69.3191 27.9046 69.1967 28.0231 69.0502 28.1056C68.9038 28.1881 68.7384 28.2317 68.5699 28.2323C68.4524 28.2308 68.3365 28.2051 68.2295 28.1568C68.1226 28.1085 68.0269 28.0388 67.9486 27.952C67.8703 27.8652 67.8111 27.7632 67.7747 27.6525C67.7383 27.5419 67.7255 27.4249 67.7371 27.3091C67.7371 26.5397 68.3213 26.1212 69.3778 26.1274V26.0627C69.3778 25.7981 69.3126 25.3272 68.7563 25.3272C68.5007 25.3294 68.2525 25.4125 68.0479 25.5642L67.9329 25.1826C68.1929 24.9958 68.5066 24.8966 68.8278 24.8995C69.6637 24.8995 69.8657 25.5642 69.8657 26.1982L69.8501 27.3984ZM69.3778 26.5274C68.8371 26.5274 68.2219 26.6259 68.2219 27.2445C68.2219 27.6169 68.4363 27.7953 68.6911 27.7953C68.8447 27.7907 68.9925 27.736 69.1116 27.6397C69.2307 27.5435 69.3144 27.4111 69.3499 27.2629C69.3671 27.207 69.3765 27.1491 69.3778 27.0906V26.5274Z" fill="white"/>
<path d="M70.9906 24.9702V26.2504H72.2863V24.9702H72.7742V28.1492H72.2863V26.712H70.9906V28.1492H70.4996V24.9702H70.9906Z" fill="white"/>
<path d="M73.9021 24.9702V26.312C73.9021 26.8167 73.9021 27.1306 73.8741 27.586C74.0388 27.2044 74.1351 26.9705 74.3153 26.6136L75.1668 24.9702H75.7447V28.1492H75.2817V26.8044C75.2817 26.2843 75.2817 26.0135 75.3159 25.5026H75.3004C75.1233 25.9088 75.0052 26.1673 74.8498 26.4874C74.5888 26.9798 74.2905 27.5922 73.9984 28.1492H73.4266V24.9702H73.9021Z" fill="white"/>
<path d="M78.4357 28.1492H77.9478V26.8167H77.5811C77.4967 26.8116 77.4122 26.8247 77.3334 26.855C77.2546 26.8852 77.1833 26.932 77.1244 26.9921C76.9224 27.1829 76.8478 27.5768 76.7422 27.8876C76.7096 27.9767 76.6722 28.0641 76.6303 28.1492H76.0989C76.1658 28.0345 76.222 27.914 76.2667 27.7892C76.3879 27.4814 76.4532 27.066 76.6955 26.829C76.779 26.7391 76.8869 26.675 77.0063 26.6444V26.6259C76.8079 26.6088 76.6234 26.5182 76.4898 26.3721C76.3561 26.226 76.2831 26.0352 76.2854 25.8381C76.2809 25.7022 76.3116 25.5675 76.3747 25.4468C76.4378 25.3261 76.5312 25.2235 76.6458 25.1487C76.9233 24.9919 77.2403 24.9172 77.5594 24.9333C77.8526 24.9346 78.1454 24.9562 78.4357 24.9979V28.1492ZM77.9478 25.3518C77.8122 25.3305 77.675 25.3202 77.5376 25.3211C77.1989 25.3211 76.7981 25.4318 76.7981 25.8719C76.7981 26.312 77.23 26.4228 77.5252 26.4228H77.9478V25.3518Z" fill="white"/>
<path d="M80.6109 24.9702V26.312C80.6109 26.8167 80.6109 27.1306 80.5861 27.586H80.6016C80.7632 27.2044 80.8595 26.9705 81.0398 26.6136L81.8912 24.9702H82.4722V28.1492H81.9999V26.8044C81.9999 26.2843 81.9999 26.0135 82.0341 25.5026H82.0155C81.8415 25.9088 81.7203 26.1673 81.5649 26.4874C81.3039 26.9798 81.0056 27.5922 80.7135 28.1492H80.1448V24.9702H80.6109Z" fill="white"/>
<path d="M86.434 24.9702V28.1492H85.9369V25.4318H84.6691V28.1492H84.1781V24.9702H86.434Z" fill="white"/>
<path d="M87.5527 24.9702V26.312C87.5527 26.8167 87.5527 27.1306 87.5247 27.586H87.5433C87.7049 27.2044 87.8012 26.9705 87.9815 26.6136L88.8329 24.9702H89.4108V28.1492H88.9541V26.8044C88.9541 26.2843 88.9541 26.0135 88.9882 25.5026H88.9541C88.7769 25.9088 88.6589 26.1673 88.5035 26.4874C88.2425 26.9798 87.9442 27.5922 87.6521 28.1492H87.0897V24.9702H87.5527Z" fill="white"/>
<path d="M90.5514 24.9702V27.7061H91.5054V24.9794H91.987V27.7061H92.941V24.9794H93.4319V27.7061H93.7054L93.6805 29.1432H93.3045L93.2828 28.1338H90.076V24.9702H90.5514Z" fill="white"/>
<path d="M94.4107 26.6659C94.4107 27.4475 94.8488 27.7676 95.3429 27.7676C95.6044 27.7771 95.8641 27.721 96.098 27.6045L96.1819 28.0169C95.901 28.1578 95.5893 28.2276 95.2745 28.22C94.4355 28.22 93.9321 27.5706 93.9321 26.6135C93.9321 25.6565 94.42 24.8994 95.2124 24.8994C96.1042 24.8994 96.3403 25.8226 96.3403 26.395C96.3395 26.4856 96.3332 26.576 96.3217 26.6659H94.4107ZM95.8649 26.2504C95.8649 25.8842 95.7344 25.3118 95.1782 25.3118C94.6748 25.3118 94.4573 25.8503 94.4169 26.2504H95.8649Z" fill="white"/>
<path d="M96.8032 25.0103C97.0906 24.9614 97.3817 24.9377 97.6733 24.9396C98.1301 24.9396 98.8851 25.0226 98.8851 25.7335C98.8888 25.8999 98.8336 26.0622 98.7292 26.1926C98.6248 26.323 98.4778 26.4131 98.3134 26.4475V26.4752C98.5092 26.4932 98.6907 26.5849 98.8202 26.7315C98.9497 26.8781 99.0174 27.0684 99.0094 27.263C99.0094 28.097 98.1052 28.2016 97.5707 28.2016C97.26 28.2016 96.9493 28.1739 96.8032 28.1616V25.0103ZM97.2724 27.78C97.405 27.8006 97.5391 27.8099 97.6733 27.8077C98.0058 27.8077 98.4998 27.7154 98.4998 27.2569C98.4998 26.7983 98.1052 26.6968 97.6329 26.6968H97.2724V27.78ZM97.2724 26.3152H97.6546C98.0213 26.3152 98.4004 26.1921 98.4004 25.8166C98.4004 25.5089 98.1642 25.3519 97.6671 25.3519C97.5393 25.3525 97.4116 25.3607 97.2849 25.3766L97.2724 26.3152Z" fill="white"/>
<path d="M99.9728 24.9702V26.0535C100.119 26.0244 100.268 26.011 100.417 26.0135C101.001 26.0135 101.595 26.2966 101.595 27.0783C101.602 27.2136 101.581 27.3489 101.532 27.4756C101.483 27.6023 101.408 27.7174 101.312 27.8138C101.009 28.074 100.616 28.2066 100.215 28.1831C99.969 28.1822 99.7231 28.1668 99.4788 28.1369V24.9702H99.9728ZM99.9728 27.7399C100.086 27.756 100.2 27.7642 100.315 27.7645C100.694 27.7645 101.104 27.583 101.104 27.0906C101.104 26.5982 100.709 26.4197 100.336 26.4197C100.214 26.4183 100.092 26.4297 99.9728 26.4535V27.7399ZM102.428 24.9702V28.1492H101.937V24.9702H102.428Z" fill="white"/>
<path d="M103.375 26.6659C103.375 27.4475 103.813 27.7676 104.308 27.7676C104.569 27.7771 104.829 27.721 105.063 27.6045L105.147 28.0169C104.866 28.1578 104.554 28.2276 104.239 28.22C103.4 28.22 102.897 27.5706 102.897 26.6135C102.897 25.6565 103.382 24.8994 104.177 24.8994C105.069 24.8994 105.302 25.8226 105.302 26.395C105.302 26.4855 105.297 26.5759 105.286 26.6659H103.375ZM104.826 26.2504C104.826 25.8842 104.699 25.3118 104.14 25.3118C103.639 25.3118 103.419 25.8503 103.378 26.2504H104.826Z" fill="white"/>
<path d="M107.288 24.9702V26.312C107.288 26.8167 107.288 27.1306 107.256 27.586H107.275C107.44 27.2044 107.533 26.9705 107.713 26.6136L108.565 24.9702H109.152V28.1492H108.68V26.8044C108.68 26.2843 108.68 26.0135 108.711 25.5026C108.537 25.9088 108.419 26.1673 108.26 26.4874C108.002 26.9798 107.701 27.5922 107.409 28.1492H106.84V24.9702H107.288Z" fill="white"/>
<path d="M110.292 24.9702V26.2504H111.588V24.9702H112.079V28.1492H111.588V26.712H110.292V28.1492H109.801V24.9702H110.292Z" fill="white"/>
<path d="M114.413 24.9702V25.438H113.229V28.1492H112.738V24.9702H114.413Z" fill="white"/>
<path d="M114.745 26.0104C114.745 25.6011 114.745 25.2749 114.72 24.9703H115.168L115.19 25.515C115.273 25.3298 115.409 25.1728 115.581 25.0634C115.754 24.954 115.954 24.897 116.159 24.8995C116.818 24.8995 117.312 25.5488 117.312 26.5151C117.312 27.6569 116.715 28.22 116.069 28.22C115.896 28.2221 115.726 28.1766 115.578 28.0885C115.43 28.0005 115.309 27.8734 115.23 27.7215V29.4479H114.745V26.0104ZM115.236 26.8567C115.237 26.9362 115.244 27.0154 115.258 27.0937C115.284 27.2715 115.371 27.4351 115.504 27.5576C115.636 27.6801 115.807 27.7542 115.988 27.7677C116.513 27.7677 116.818 27.2691 116.818 26.5367C116.818 25.8997 116.529 25.355 116.007 25.355C115.818 25.3718 115.641 25.4521 115.505 25.5826C115.368 25.713 115.281 25.8857 115.258 26.072C115.237 26.1493 115.225 26.2289 115.224 26.309L115.236 26.8567Z" fill="white"/>
<path d="M118.079 26.6659C118.079 27.4475 118.521 27.7676 119.012 27.7676C119.273 27.7771 119.533 27.721 119.767 27.6045L119.85 28.0169C119.57 28.1578 119.258 28.2276 118.943 28.22C118.104 28.22 117.604 27.5706 117.604 26.6135C117.604 25.6565 118.089 24.8994 118.881 24.8994C119.773 24.8994 120.009 25.8226 120.009 26.395C120.009 26.5151 120.009 26.6074 120.009 26.6659H118.079ZM119.534 26.2504C119.534 25.8842 119.403 25.3118 118.847 25.3118C118.343 25.3118 118.123 25.8503 118.086 26.2504H119.534Z" fill="white"/>
<path d="M122.616 24.9704V27.7063H122.896L122.868 29.1434H122.479L122.458 28.134H120.568L120.547 29.1434H120.158L120.136 27.7063H120.366C120.485 27.5025 120.576 27.2842 120.637 27.0569C120.746 26.6431 120.799 26.2167 120.795 25.789V24.9612L122.616 24.9704ZM121.236 25.9367C121.237 26.3349 121.189 26.7318 121.093 27.1185C121.04 27.3222 120.966 27.5201 120.873 27.7093H122.131V25.4105H121.236V25.9367Z" fill="white"/>
<path d="M123.803 24.9702V26.312C123.803 26.8167 123.803 27.1306 123.775 27.586H123.791C123.955 27.2044 124.052 26.9705 124.232 26.6136L125.083 24.9702H125.661V28.1492H125.189V26.8044C125.189 26.2843 125.189 26.0135 125.223 25.5026H125.208C125.034 25.9088 124.916 26.1673 124.757 26.4874C124.499 26.9798 124.198 27.5922 123.906 28.1492H123.337V24.9702H123.803Z" fill="white"/>
<path d="M126.603 26.6659C126.603 27.4475 127.044 27.7676 127.535 27.7676C127.798 27.7765 128.058 27.7205 128.293 27.6045L128.374 28.0169C128.093 28.1578 127.781 28.2276 127.467 28.22C126.628 28.22 126.127 27.5706 126.127 26.6135C126.127 25.6565 126.612 24.8994 127.408 24.8994C128.296 24.8994 128.532 25.8226 128.532 26.395C128.537 26.4852 128.537 26.5757 128.532 26.6659H126.603ZM128.057 26.2504C128.057 25.8842 127.927 25.3118 127.37 25.3118C126.87 25.3118 126.649 25.8503 126.609 26.2504H128.057Z" fill="white"/>
<path d="M129.489 24.9702V26.2504H130.782V24.9702H131.273V28.1492H130.782V26.712H129.489V28.1492H128.998V24.9702H129.489Z" fill="white"/>
<path d="M133.771 24.9702V25.4318H132.92V28.1492H132.429V25.4318H131.578V24.9702H133.771Z" fill="white"/>
<path d="M134.542 24.9702V26.0535C134.688 26.0246 134.837 26.0112 134.986 26.0135C135.574 26.0135 136.164 26.2966 136.164 27.0783C136.172 27.2134 136.151 27.3487 136.103 27.4753C136.055 27.602 135.98 27.7173 135.884 27.8138C135.58 28.0731 135.186 28.2054 134.784 28.183C134.539 28.1824 134.294 28.1669 134.051 28.1369V24.9702H134.542ZM134.542 27.7399C134.656 27.7559 134.772 27.7642 134.887 27.7645C134.984 27.7771 135.084 27.7691 135.178 27.7412C135.272 27.7132 135.359 27.6659 135.434 27.6023C135.508 27.5387 135.568 27.4602 135.61 27.3721C135.652 27.2839 135.674 27.188 135.676 27.0906C135.676 26.5766 135.278 26.4197 134.909 26.4197C134.786 26.4185 134.663 26.4298 134.542 26.4535V27.7399ZM137 24.9702V28.1492H136.497V24.9702H137Z" fill="white"/>
<path d="M48.9688 3.02515H44.46L36.2814 22.1052H40.9425C40.9425 22.1052 42.6204 17.9076 42.6577 17.7968H50.8642C50.9015 17.8984 52.6789 22.1052 52.6789 22.1052H57.4487L49.0433 3.02515H48.9688ZM43.997 14.4609C44.084 14.267 46.5388 8.12138 46.6911 7.75209C46.8402 8.12138 49.3447 14.267 49.4317 14.4609H43.997Z" fill="white"/>
<path d="M72.5908 15.0578C72.2428 16.4242 71.6586 17.4367 70.8973 18.0583C70.1116 18.6992 69.1183 19.037 68.1007 19.0092C67.4317 19.0315 66.7657 18.9093 66.1491 18.651C65.5326 18.3928 64.9802 18.0046 64.5304 17.5136C63.6168 16.5257 63.1445 14.8178 63.1445 12.4512C63.1445 10.2262 63.6168 8.59827 64.5428 7.61349C65.0091 7.12303 65.5758 6.73674 66.2049 6.48042C66.8339 6.22409 67.511 6.10364 68.1908 6.12709C69.1752 6.0978 70.1418 6.39094 70.9408 6.96107C71.6951 7.52214 72.2237 8.3303 72.4324 9.24145L72.4479 9.32147L76.7298 8.38285L76.705 8.30283C76.2295 6.76412 75.5117 5.58854 74.5764 4.78225C73.001 3.40048 70.9222 2.7019 68.3928 2.7019C65.5092 2.7019 63.1445 3.59128 61.3702 5.34234C59.5959 7.0934 58.6979 9.58613 58.6979 12.7282C58.6979 15.7133 59.5928 18.1045 61.3578 19.8278C63.1227 21.5512 65.3973 22.4283 68.1411 22.4283C70.3566 22.4283 72.2086 21.9205 73.6504 20.908C75.0922 19.8955 76.1363 18.3322 76.7578 16.2611L76.7795 16.1934L72.6002 14.9624L72.5908 15.0578Z" fill="white"/>
<path d="M136.91 3.02515H132.681V10.4725H124.71V3.02515H120.379V22.1052H124.71V13.8362H132.681V22.1114H137V3.0313L136.91 3.02515Z" fill="white"/>
<path d="M78.8707 3.02515V6.38878H84.8462V22.1114H89.0939V6.38878H95.0538V3.02515H78.8707Z" fill="white"/>
<path d="M107.163 2.70202C105.63 2.67388 104.106 2.93283 102.67 3.46523C101.664 3.85368 100.744 4.43397 99.9635 5.1732C99.1686 5.92976 98.5134 6.81816 98.0276 7.79825C97.4061 9.11232 97.0798 10.7495 97.0798 12.6883C97.0798 15.7073 98.012 18.1107 99.8174 19.8341C101.623 21.5575 104.134 22.4345 107.219 22.4345C110.258 22.4345 112.725 21.5482 114.549 19.8156C116.373 18.083 117.296 15.6549 117.296 12.5867C117.296 9.51854 116.364 7.04736 114.537 5.33015C112.71 3.61294 110.212 2.70202 107.163 2.70202ZM103.152 17.3814C102.089 16.2889 101.548 14.6671 101.548 12.556C101.548 10.4448 102.07 8.78303 103.102 7.72132C104.134 6.6596 105.513 6.12721 107.197 6.12721C108.882 6.12721 110.255 6.65652 111.271 7.69978C112.287 8.74303 112.803 10.3679 112.803 12.5067C112.803 14.6455 112.275 16.3104 111.249 17.3845C110.729 17.9205 110.1 18.3421 109.404 18.6221C108.708 18.902 107.961 19.0339 107.21 19.0093C106.456 19.0336 105.706 18.9013 105.007 18.6209C104.308 18.3406 103.676 17.9183 103.152 17.3814Z" fill="white"/>
</g>
<defs>
<linearGradient id="paint0_linear_3_207" x1="0" y1="13.9527" x2="31.5334" y2="13.9527" gradientUnits="userSpaceOnUse">
<stop stop-color="#E30613"/>
<stop offset="1" stop-color="#8A1002"/>
</linearGradient>
<clipPath id="clip0_3_207">
<rect width="137" height="29.5988" fill="white"/>
</clipPath>
</defs>
</svg>
