<svg width="15" height="9" viewBox="0 0 15 9" fill="none" xmlns="http://www.w3.org/2000/svg">
<path d="M15 8.02048C14.957 8.12731 14.9178 8.23747 14.8787 8.33762C13.3642 7.05572 11.8576 5.78384 10.347 4.50861C11.8654 3.22671 13.372 1.95149 14.8865 0.67627C14.9178 0.756388 14.9609 0.866551 15 0.973376C15 3.32352 15 5.67367 15 8.02048Z" fill="black"/>
<path d="M14.2369 0.115682C14.0099 0.305963 13.7947 0.479554 13.5873 0.659821C11.6932 2.27889 9.80305 3.89795 7.90897 5.51702C7.64286 5.74402 7.35327 5.74402 7.09108 5.52035C5.02089 3.74439 2.95071 1.97176 0.876618 0.199139C0.845311 0.172432 0.817917 0.145726 0.759216 0.0923136C0.935319 0.0589308 1.08403 0.0288863 1.23274 0.00551838C1.28752 -0.00449646 1.35014 0.0021801 1.40884 0.0021801C5.47093 0.0021801 9.52911 0.0021801 13.5912 0.0021801C13.8064 -0.00115818 14.0139 0.0188715 14.2369 0.115682Z" fill="black"/>
<path d="M0.78656 8.87548C2.2893 7.60693 3.79595 6.33504 5.31434 5.0498C5.36522 5.09654 5.43566 5.16331 5.51001 5.22673C5.827 5.49713 6.14398 5.77087 6.46097 6.04127C7.07928 6.56872 7.91674 6.56872 8.53897 6.03794C8.93031 5.70411 9.32165 5.37362 9.68951 5.06316C11.1962 6.33504 12.7028 7.61027 14.2369 8.90552C14.0608 8.93891 13.912 8.96895 13.7594 8.99232C13.6968 9.00233 13.6342 8.99566 13.5677 8.99566C9.51732 8.99566 5.46697 8.99566 1.41661 8.99232C1.20529 8.99232 0.997883 8.94892 0.78656 8.92889C0.790473 8.9122 0.790473 8.89217 0.78656 8.87548Z" fill="black"/>
<path d="M0.101746 8.34813C0.0665257 8.19457 0.0039116 8.04101 0.0039116 7.88745C-1.78337e-06 5.62744 -1.78337e-06 3.36742 0.0039116 1.10741C0.0039116 0.953845 0.0704391 0.803623 0.101746 0.656738C1.62797 1.94865 3.13853 3.22387 4.65301 4.50244C3.14245 5.77766 1.63579 7.05288 0.101746 8.34813Z" fill="black"/>
</svg>
